<svg width="256" height="291" xmlns="http://www.w3.org/2000/svg" preserveAspectRatio="xMidYMid" version="1.1">

 <g>
  <title>Layer 1</title>
  <g id="svg_1">
   <path id="svg_2" fill="#264DE4" d="m127.39868,289.08791l-104.18216,-28.92167l-23.21652,-260.40053l255.10962,0l-23.24114,260.35974l-104.4698,28.96246l0,0z"/>
   <path id="svg_3" fill="#2965F1" d="m211.97151,243.54664l19.8611,-222.48932l-104.2778,0l0,245.89292l84.4167,-23.4036l0,0z"/>
   <path id="svg_4" fill="#EBEBEB" d="m53.22338,117.63613l2.86242,31.9367l71.46901,0l0,-31.9367l-74.33143,0l0,0z"/>
   <path id="svg_5" fill="#EBEBEB" d="m47.47182,52.99473l2.90321,31.9374l77.17978,0l0,-31.9374l-80.08299,0l0,0z"/>
   <path id="svg_6" fill="#EBEBEB" d="m127.55481,200.58013l-0.13996,0.03728l-35.56852,-9.60422l-2.27376,-25.4713l-32.05978,0l4.47437,50.14576l65.42066,18.16123l0.14699,-0.04079l0,-33.22796l0,0z"/>
   <path id="svg_7" fill="#000000" d="m60.03833,-71l38.68132,0l0,16.17582l-22.5055,0l0,16.17583l22.5055,0l0,16.17582l-38.68132,0l0,-48.52747l0,0z"/>
   <path id="svg_8" fill="#000000" d="m106.45591,-71l38.68132,0l0,14.06593l-22.5055,0l0,2.81319l22.5055,0l0,32.35165l-38.68132,0l0,-14.76923l22.50549,0l0,-2.81319l-22.50549,0l0,-31.64835l0,0z"/>
   <path id="svg_9" fill="#000000" d="m152.87349,-71l38.68132,0l0,14.06593l-22.50549,0l0,2.81319l22.50549,0l0,32.35165l-38.68132,0l0,-14.76923l22.5055,0l0,-2.81319l-22.5055,0l0,-31.64835l0,0z"/>
   <path id="svg_10" fill="#FFFFFF" d="m201.68158,117.63613l5.76563,-64.6414l-80.00282,0l0,31.9374l45.00255,0l-2.90602,32.704l-42.09653,0l0,31.9367l39.32695,0l-3.70708,41.41996l-35.61987,9.61407l0,33.22655l65.47271,-18.14576l0.48035,-5.39569l7.50488,-84.07983l0.77925,-8.576l0,0z"/>
  </g>
 </g>
</svg>